<mxfile host="app.diagrams.net" modified="2023-11-28T05:51:30.627Z" agent="Mozilla/5.0 (Windows NT 10.0; Win64; x64) AppleWebKit/537.36 (KHTML, like Gecko) Chrome/116.0.5845.686 YaBrowser/23.9.5.686 Yowser/2.5 Safari/537.36" etag="-NCGaHOtlFtdti5NLy1H" version="22.1.4" type="device">
  <diagram name="Страница — 1" id="03DiCciT1GzGES2OP8Xj">
    <mxGraphModel dx="1179" dy="676" grid="1" gridSize="10" guides="1" tooltips="1" connect="1" arrows="1" fold="1" page="1" pageScale="1" pageWidth="827" pageHeight="1169" math="0" shadow="0">
      <root>
        <mxCell id="0" />
        <mxCell id="1" parent="0" />
        <mxCell id="aUQqSGF1m38MCEzECmRu-1" value="Tile" style="swimlane;fontStyle=0;childLayout=stackLayout;horizontal=1;startSize=26;fillColor=none;horizontalStack=0;resizeParent=1;resizeParentMax=0;resizeLast=0;collapsible=1;marginBottom=0;whiteSpace=wrap;html=1;" parent="1" vertex="1">
          <mxGeometry x="600" y="192" width="230" height="200" as="geometry" />
        </mxCell>
        <mxCell id="aUQqSGF1m38MCEzECmRu-2" value="+ &lt;u&gt;SIZE: int&lt;/u&gt;" style="text;strokeColor=none;fillColor=none;align=left;verticalAlign=top;spacingLeft=4;spacingRight=4;overflow=hidden;rotatable=0;points=[[0,0.5],[1,0.5]];portConstraint=eastwest;whiteSpace=wrap;html=1;" parent="aUQqSGF1m38MCEzECmRu-1" vertex="1">
          <mxGeometry y="26" width="230" height="26" as="geometry" />
        </mxCell>
        <mxCell id="aUQqSGF1m38MCEzECmRu-3" value="+&amp;nbsp;SetPixel(Point p, char color)" style="text;strokeColor=none;fillColor=none;align=left;verticalAlign=top;spacingLeft=4;spacingRight=4;overflow=hidden;rotatable=0;points=[[0,0.5],[1,0.5]];portConstraint=eastwest;whiteSpace=wrap;html=1;" parent="aUQqSGF1m38MCEzECmRu-1" vertex="1">
          <mxGeometry y="52" width="230" height="26" as="geometry" />
        </mxCell>
        <mxCell id="aUQqSGF1m38MCEzECmRu-4" value="+ GetPixel(Point p): char" style="text;strokeColor=none;fillColor=none;align=left;verticalAlign=top;spacingLeft=4;spacingRight=4;overflow=hidden;rotatable=0;points=[[0,0.5],[1,0.5]];portConstraint=eastwest;whiteSpace=wrap;html=1;" parent="aUQqSGF1m38MCEzECmRu-1" vertex="1">
          <mxGeometry y="78" width="230" height="26" as="geometry" />
        </mxCell>
        <mxCell id="aUQqSGF1m38MCEzECmRu-5" value="+&amp;nbsp;&amp;nbsp;&lt;u&gt;GetInstanceCount(): int&lt;/u&gt;" style="text;strokeColor=none;fillColor=none;align=left;verticalAlign=top;spacingLeft=4;spacingRight=4;overflow=hidden;rotatable=0;points=[[0,0.5],[1,0.5]];portConstraint=eastwest;whiteSpace=wrap;html=1;" parent="aUQqSGF1m38MCEzECmRu-1" vertex="1">
          <mxGeometry y="104" width="230" height="26" as="geometry" />
        </mxCell>
        <mxCell id="aUQqSGF1m38MCEzECmRu-6" value="-&amp;nbsp;&lt;u&gt;m_instanceCount: int&lt;/u&gt;" style="text;strokeColor=none;fillColor=none;align=left;verticalAlign=top;spacingLeft=4;spacingRight=4;overflow=hidden;rotatable=0;points=[[0,0.5],[1,0.5]];portConstraint=eastwest;whiteSpace=wrap;html=1;" parent="aUQqSGF1m38MCEzECmRu-1" vertex="1">
          <mxGeometry y="130" width="230" height="26" as="geometry" />
        </mxCell>
        <mxCell id="aUQqSGF1m38MCEzECmRu-7" value="- m_pixels: array&amp;lt;array&amp;lt;char, SIZE&amp;gt;, SIZE&amp;gt;" style="text;strokeColor=none;fillColor=none;align=left;verticalAlign=top;spacingLeft=4;spacingRight=4;overflow=hidden;rotatable=0;points=[[0,0.5],[1,0.5]];portConstraint=eastwest;whiteSpace=wrap;html=1;" parent="aUQqSGF1m38MCEzECmRu-1" vertex="1">
          <mxGeometry y="156" width="230" height="44" as="geometry" />
        </mxCell>
        <mxCell id="aUQqSGF1m38MCEzECmRu-8" value="Point" style="swimlane;fontStyle=0;childLayout=stackLayout;horizontal=1;startSize=26;fillColor=none;horizontalStack=0;resizeParent=1;resizeParentMax=0;resizeLast=0;collapsible=1;marginBottom=0;whiteSpace=wrap;html=1;" parent="1" vertex="1">
          <mxGeometry x="310" y="140" width="140" height="78" as="geometry" />
        </mxCell>
        <mxCell id="aUQqSGF1m38MCEzECmRu-9" value="+ x: int" style="text;strokeColor=none;fillColor=none;align=left;verticalAlign=top;spacingLeft=4;spacingRight=4;overflow=hidden;rotatable=0;points=[[0,0.5],[1,0.5]];portConstraint=eastwest;whiteSpace=wrap;html=1;" parent="aUQqSGF1m38MCEzECmRu-8" vertex="1">
          <mxGeometry y="26" width="140" height="26" as="geometry" />
        </mxCell>
        <mxCell id="aUQqSGF1m38MCEzECmRu-10" value="+ y: int" style="text;strokeColor=none;fillColor=none;align=left;verticalAlign=top;spacingLeft=4;spacingRight=4;overflow=hidden;rotatable=0;points=[[0,0.5],[1,0.5]];portConstraint=eastwest;whiteSpace=wrap;html=1;" parent="aUQqSGF1m38MCEzECmRu-8" vertex="1">
          <mxGeometry y="52" width="140" height="26" as="geometry" />
        </mxCell>
        <mxCell id="aUQqSGF1m38MCEzECmRu-12" value="Size" style="swimlane;fontStyle=0;childLayout=stackLayout;horizontal=1;startSize=26;fillColor=none;horizontalStack=0;resizeParent=1;resizeParentMax=0;resizeLast=0;collapsible=1;marginBottom=0;whiteSpace=wrap;html=1;" parent="1" vertex="1">
          <mxGeometry x="510" y="72" width="140" height="78" as="geometry" />
        </mxCell>
        <mxCell id="aUQqSGF1m38MCEzECmRu-13" value="+ width : int" style="text;strokeColor=none;fillColor=none;align=left;verticalAlign=top;spacingLeft=4;spacingRight=4;overflow=hidden;rotatable=0;points=[[0,0.5],[1,0.5]];portConstraint=eastwest;whiteSpace=wrap;html=1;" parent="aUQqSGF1m38MCEzECmRu-12" vertex="1">
          <mxGeometry y="26" width="140" height="26" as="geometry" />
        </mxCell>
        <mxCell id="aUQqSGF1m38MCEzECmRu-14" value="+ height: int" style="text;strokeColor=none;fillColor=none;align=left;verticalAlign=top;spacingLeft=4;spacingRight=4;overflow=hidden;rotatable=0;points=[[0,0.5],[1,0.5]];portConstraint=eastwest;whiteSpace=wrap;html=1;" parent="aUQqSGF1m38MCEzECmRu-12" vertex="1">
          <mxGeometry y="52" width="140" height="26" as="geometry" />
        </mxCell>
        <mxCell id="aUQqSGF1m38MCEzECmRu-15" value="CoW&amp;lt;value&amp;gt;" style="swimlane;fontStyle=0;childLayout=stackLayout;horizontal=1;startSize=26;fillColor=none;horizontalStack=0;resizeParent=1;resizeParentMax=0;resizeLast=0;collapsible=1;marginBottom=0;whiteSpace=wrap;html=1;" parent="1" vertex="1">
          <mxGeometry x="20" y="280" width="180" height="156" as="geometry" />
        </mxCell>
        <mxCell id="aUQqSGF1m38MCEzECmRu-16" value="+&amp;nbsp;&amp;nbsp;Write(ModifierFn&amp;amp;&amp;amp; modify)" style="text;strokeColor=none;fillColor=none;align=left;verticalAlign=top;spacingLeft=4;spacingRight=4;overflow=hidden;rotatable=0;points=[[0,0.5],[1,0.5]];portConstraint=eastwest;whiteSpace=wrap;html=1;" parent="aUQqSGF1m38MCEzECmRu-15" vertex="1">
          <mxGeometry y="26" width="180" height="26" as="geometry" />
        </mxCell>
        <mxCell id="aUQqSGF1m38MCEzECmRu-17" value="+ Write()&amp;amp; : WriteProxy&amp;nbsp;" style="text;strokeColor=none;fillColor=none;align=left;verticalAlign=top;spacingLeft=4;spacingRight=4;overflow=hidden;rotatable=0;points=[[0,0.5],[1,0.5]];portConstraint=eastwest;whiteSpace=wrap;html=1;" parent="aUQqSGF1m38MCEzECmRu-15" vertex="1">
          <mxGeometry y="52" width="180" height="26" as="geometry" />
        </mxCell>
        <mxCell id="aUQqSGF1m38MCEzECmRu-20" value="+ WriteBad(): Value&amp;amp;" style="text;strokeColor=none;fillColor=none;align=left;verticalAlign=top;spacingLeft=4;spacingRight=4;overflow=hidden;rotatable=0;points=[[0,0.5],[1,0.5]];portConstraint=eastwest;whiteSpace=wrap;html=1;" parent="aUQqSGF1m38MCEzECmRu-15" vertex="1">
          <mxGeometry y="78" width="180" height="26" as="geometry" />
        </mxCell>
        <mxCell id="aUQqSGF1m38MCEzECmRu-21" value="- EnsureUnique()" style="text;strokeColor=none;fillColor=none;align=left;verticalAlign=top;spacingLeft=4;spacingRight=4;overflow=hidden;rotatable=0;points=[[0,0.5],[1,0.5]];portConstraint=eastwest;whiteSpace=wrap;html=1;" parent="aUQqSGF1m38MCEzECmRu-15" vertex="1">
          <mxGeometry y="104" width="180" height="26" as="geometry" />
        </mxCell>
        <mxCell id="aUQqSGF1m38MCEzECmRu-18" value="- value_ : shared_ptr&amp;lt;Value&amp;gt;&amp;nbsp;" style="text;strokeColor=none;fillColor=none;align=left;verticalAlign=top;spacingLeft=4;spacingRight=4;overflow=hidden;rotatable=0;points=[[0,0.5],[1,0.5]];portConstraint=eastwest;whiteSpace=wrap;html=1;" parent="aUQqSGF1m38MCEzECmRu-15" vertex="1">
          <mxGeometry y="130" width="180" height="26" as="geometry" />
        </mxCell>
        <mxCell id="aUQqSGF1m38MCEzECmRu-22" value="WriteProxy" style="swimlane;fontStyle=0;childLayout=stackLayout;horizontal=1;startSize=26;fillColor=none;horizontalStack=0;resizeParent=1;resizeParentMax=0;resizeLast=0;collapsible=1;marginBottom=0;whiteSpace=wrap;html=1;" parent="1" vertex="1">
          <mxGeometry y="140" width="140" height="52" as="geometry" />
        </mxCell>
        <mxCell id="aUQqSGF1m38MCEzECmRu-24" value="- value_ptr_ : Value*&amp;nbsp;" style="text;strokeColor=none;fillColor=none;align=left;verticalAlign=top;spacingLeft=4;spacingRight=4;overflow=hidden;rotatable=0;points=[[0,0.5],[1,0.5]];portConstraint=eastwest;whiteSpace=wrap;html=1;" parent="aUQqSGF1m38MCEzECmRu-22" vertex="1">
          <mxGeometry y="26" width="140" height="26" as="geometry" />
        </mxCell>
        <mxCell id="aUQqSGF1m38MCEzECmRu-26" value="" style="endArrow=diamondThin;endFill=1;endSize=24;html=1;rounded=0;entryX=0.384;entryY=-0.018;entryDx=0;entryDy=0;entryPerimeter=0;exitX=0.654;exitY=1.046;exitDx=0;exitDy=0;exitPerimeter=0;" parent="1" source="aUQqSGF1m38MCEzECmRu-24" target="aUQqSGF1m38MCEzECmRu-15" edge="1">
          <mxGeometry width="160" relative="1" as="geometry">
            <mxPoint x="330" y="300" as="sourcePoint" />
            <mxPoint x="490" y="300" as="targetPoint" />
          </mxGeometry>
        </mxCell>
        <mxCell id="aUQqSGF1m38MCEzECmRu-27" value="Image" style="swimlane;fontStyle=0;childLayout=stackLayout;horizontal=1;startSize=26;fillColor=none;horizontalStack=0;resizeParent=1;resizeParentMax=0;resizeLast=0;collapsible=1;marginBottom=0;whiteSpace=wrap;html=1;" parent="1" vertex="1">
          <mxGeometry x="180" y="520" width="190" height="156" as="geometry" />
        </mxCell>
        <mxCell id="aUQqSGF1m38MCEzECmRu-28" value="+ GetSize():Size&amp;nbsp;" style="text;strokeColor=none;fillColor=none;align=left;verticalAlign=top;spacingLeft=4;spacingRight=4;overflow=hidden;rotatable=0;points=[[0,0.5],[1,0.5]];portConstraint=eastwest;whiteSpace=wrap;html=1;" parent="aUQqSGF1m38MCEzECmRu-27" vertex="1">
          <mxGeometry y="26" width="190" height="26" as="geometry" />
        </mxCell>
        <mxCell id="aUQqSGF1m38MCEzECmRu-29" value="+ GetPixel(Point p) : char&amp;nbsp;" style="text;strokeColor=none;fillColor=none;align=left;verticalAlign=top;spacingLeft=4;spacingRight=4;overflow=hidden;rotatable=0;points=[[0,0.5],[1,0.5]];portConstraint=eastwest;whiteSpace=wrap;html=1;" parent="aUQqSGF1m38MCEzECmRu-27" vertex="1">
          <mxGeometry y="52" width="190" height="26" as="geometry" />
        </mxCell>
        <mxCell id="aUQqSGF1m38MCEzECmRu-30" value="+&amp;nbsp;SetPixel(Point p, char color)" style="text;strokeColor=none;fillColor=none;align=left;verticalAlign=top;spacingLeft=4;spacingRight=4;overflow=hidden;rotatable=0;points=[[0,0.5],[1,0.5]];portConstraint=eastwest;whiteSpace=wrap;html=1;" parent="aUQqSGF1m38MCEzECmRu-27" vertex="1">
          <mxGeometry y="78" width="190" height="26" as="geometry" />
        </mxCell>
        <mxCell id="aUQqSGF1m38MCEzECmRu-31" value="- m_size: Size&amp;nbsp;" style="text;strokeColor=none;fillColor=none;align=left;verticalAlign=top;spacingLeft=4;spacingRight=4;overflow=hidden;rotatable=0;points=[[0,0.5],[1,0.5]];portConstraint=eastwest;whiteSpace=wrap;html=1;" parent="aUQqSGF1m38MCEzECmRu-27" vertex="1">
          <mxGeometry y="104" width="190" height="26" as="geometry" />
        </mxCell>
        <mxCell id="aUQqSGF1m38MCEzECmRu-32" value="- m_tiles: vector&amp;lt;TileWithCoord&amp;gt;&amp;nbsp;" style="text;strokeColor=none;fillColor=none;align=left;verticalAlign=top;spacingLeft=4;spacingRight=4;overflow=hidden;rotatable=0;points=[[0,0.5],[1,0.5]];portConstraint=eastwest;whiteSpace=wrap;html=1;" parent="aUQqSGF1m38MCEzECmRu-27" vertex="1">
          <mxGeometry y="130" width="190" height="26" as="geometry" />
        </mxCell>
        <mxCell id="aUQqSGF1m38MCEzECmRu-38" value="TileWithCoord" style="swimlane;fontStyle=0;childLayout=stackLayout;horizontal=1;startSize=26;fillColor=none;horizontalStack=0;resizeParent=1;resizeParentMax=0;resizeLast=0;collapsible=1;marginBottom=0;whiteSpace=wrap;html=1;" parent="1" vertex="1">
          <mxGeometry x="480" y="490" width="140" height="78" as="geometry" />
        </mxCell>
        <mxCell id="aUQqSGF1m38MCEzECmRu-39" value="+ leftTop: Point" style="text;strokeColor=none;fillColor=none;align=left;verticalAlign=top;spacingLeft=4;spacingRight=4;overflow=hidden;rotatable=0;points=[[0,0.5],[1,0.5]];portConstraint=eastwest;whiteSpace=wrap;html=1;" parent="aUQqSGF1m38MCEzECmRu-38" vertex="1">
          <mxGeometry y="26" width="140" height="26" as="geometry" />
        </mxCell>
        <mxCell id="aUQqSGF1m38MCEzECmRu-40" value="+ tile:&amp;nbsp;&amp;nbsp;CoW&amp;lt;Tile&amp;gt;&amp;nbsp;" style="text;strokeColor=none;fillColor=none;align=left;verticalAlign=top;spacingLeft=4;spacingRight=4;overflow=hidden;rotatable=0;points=[[0,0.5],[1,0.5]];portConstraint=eastwest;whiteSpace=wrap;html=1;" parent="aUQqSGF1m38MCEzECmRu-38" vertex="1">
          <mxGeometry y="52" width="140" height="26" as="geometry" />
        </mxCell>
        <mxCell id="aUQqSGF1m38MCEzECmRu-42" value="" style="endArrow=diamondThin;endFill=1;endSize=24;html=1;rounded=0;entryX=0.996;entryY=0.246;entryDx=0;entryDy=0;entryPerimeter=0;exitX=0;exitY=0.5;exitDx=0;exitDy=0;" parent="1" source="aUQqSGF1m38MCEzECmRu-39" target="aUQqSGF1m38MCEzECmRu-30" edge="1">
          <mxGeometry width="160" relative="1" as="geometry">
            <mxPoint x="350" y="430" as="sourcePoint" />
            <mxPoint x="510" y="430" as="targetPoint" />
          </mxGeometry>
        </mxCell>
        <mxCell id="aUQqSGF1m38MCEzECmRu-43" value="" style="endArrow=diamondThin;endFill=1;endSize=24;html=1;rounded=0;entryX=0.5;entryY=0;entryDx=0;entryDy=0;exitX=1;exitY=0.5;exitDx=0;exitDy=0;" parent="1" source="aUQqSGF1m38MCEzECmRu-17" target="aUQqSGF1m38MCEzECmRu-38" edge="1">
          <mxGeometry width="160" relative="1" as="geometry">
            <mxPoint x="490" y="539" as="sourcePoint" />
            <mxPoint x="379" y="614" as="targetPoint" />
          </mxGeometry>
        </mxCell>
        <mxCell id="aUQqSGF1m38MCEzECmRu-45" value="" style="endArrow=diamondThin;endFill=1;endSize=24;html=1;rounded=0;entryX=0.706;entryY=-0.01;entryDx=0;entryDy=0;entryPerimeter=0;" parent="1" source="aUQqSGF1m38MCEzECmRu-10" target="aUQqSGF1m38MCEzECmRu-38" edge="1">
          <mxGeometry width="160" relative="1" as="geometry">
            <mxPoint x="290" y="375" as="sourcePoint" />
            <mxPoint x="560" y="500" as="targetPoint" />
          </mxGeometry>
        </mxCell>
        <mxCell id="aUQqSGF1m38MCEzECmRu-46" value="" style="endArrow=diamondThin;endFill=1;endSize=24;html=1;rounded=0;entryX=0.6;entryY=-0.018;entryDx=0;entryDy=0;entryPerimeter=0;exitX=0;exitY=0.5;exitDx=0;exitDy=0;edgeStyle=orthogonalEdgeStyle;" parent="1" source="aUQqSGF1m38MCEzECmRu-13" target="aUQqSGF1m38MCEzECmRu-27" edge="1">
          <mxGeometry width="160" relative="1" as="geometry">
            <mxPoint x="399" y="228" as="sourcePoint" />
            <mxPoint x="589" y="499" as="targetPoint" />
            <Array as="points">
              <mxPoint x="490" y="111" />
              <mxPoint x="490" y="90" />
              <mxPoint x="294" y="90" />
            </Array>
          </mxGeometry>
        </mxCell>
        <mxCell id="aUQqSGF1m38MCEzECmRu-44" value="" style="endArrow=diamondThin;endFill=1;endSize=24;html=1;rounded=0;exitX=0;exitY=0.5;exitDx=0;exitDy=0;entryX=1;entryY=0.5;entryDx=0;entryDy=0;" parent="1" source="aUQqSGF1m38MCEzECmRu-5" target="aUQqSGF1m38MCEzECmRu-16" edge="1">
          <mxGeometry width="160" relative="1" as="geometry">
            <mxPoint x="290" y="375" as="sourcePoint" />
            <mxPoint x="570" y="460" as="targetPoint" />
          </mxGeometry>
        </mxCell>
        <mxCell id="aUQqSGF1m38MCEzECmRu-47" value="Use" style="endArrow=open;endSize=12;dashed=1;html=1;rounded=0;exitX=0.882;exitY=0.013;exitDx=0;exitDy=0;exitPerimeter=0;entryX=0.371;entryY=1;entryDx=0;entryDy=0;entryPerimeter=0;" parent="1" source="aUQqSGF1m38MCEzECmRu-27" target="aUQqSGF1m38MCEzECmRu-10" edge="1">
          <mxGeometry width="160" relative="1" as="geometry">
            <mxPoint x="350" y="390" as="sourcePoint" />
            <mxPoint x="510" y="390" as="targetPoint" />
          </mxGeometry>
        </mxCell>
        <mxCell id="aUQqSGF1m38MCEzECmRu-48" value="Use" style="endArrow=open;endSize=12;dashed=1;html=1;rounded=0;exitX=0;exitY=0.5;exitDx=0;exitDy=0;entryX=1;entryY=0.5;entryDx=0;entryDy=0;edgeStyle=orthogonalEdgeStyle;" parent="1" source="aUQqSGF1m38MCEzECmRu-4" target="aUQqSGF1m38MCEzECmRu-10" edge="1">
          <mxGeometry width="160" relative="1" as="geometry">
            <mxPoint x="358" y="532" as="sourcePoint" />
            <mxPoint x="372" y="228" as="targetPoint" />
          </mxGeometry>
        </mxCell>
        <mxCell id="_gczIOy44FfzbtqeB4Et-1" value="TileWithCoord не нужен" style="html=1;whiteSpace=wrap;fillColor=#f8cecc;strokeColor=#b85450;" vertex="1" parent="1">
          <mxGeometry x="700" y="450" width="110" height="50" as="geometry" />
        </mxCell>
      </root>
    </mxGraphModel>
  </diagram>
</mxfile>
